<svg width="201" height="200" viewBox="0 0 201 200" fill="none" xmlns="http://www.w3.org/2000/svg">
<path d="M175.002 0H24.9603C11.1501 0 0 11.16 0 24.97V175C0 188.81 11.2001 200 25.0103 200H175.002C188.812 200 200.002 188.81 200.002 175V25C200.002 11.19 188.802 0 175.002 0ZM29.7903 103C27.8403 101.05 27.8403 97.88 29.7903 95.93L93.431 32.29C95.3811 30.34 98.5511 30.34 100.501 32.29L118.181 49.97L104.041 64.11L96.9711 57.04L54.5406 99.47L61.6107 106.54L47.4705 120.68L29.7903 103ZM54.5406 127.75L121.711 60.57C123.661 58.62 126.831 58.62 128.781 60.57L146.462 78.25L132.321 92.39L125.251 85.32L125.281 85.29L68.6908 141.88L54.5506 127.74H54.5306L54.5406 127.75ZM160.602 120.69L153.532 113.62L153.572 113.58L100.501 166.65C98.5511 168.6 95.3811 168.6 93.431 166.65L75.7508 148.97L89.891 134.83L96.9611 141.9L149.992 88.87C151.942 86.92 155.112 86.92 157.062 88.87L174.742 106.55L160.602 120.69Z" fill="white"/>
</svg>
